<svg width="296" height="48" viewBox="0 0 296 48" fill="none" xmlns="http://www.w3.org/2000/svg">
<g clip-path="url(#clip0_62_35)">
<path d="M260.835 47.8385H253.539L272 23.2231L288.703 0.365967H296L260.835 47.8385Z" fill="#E2231A"/>
<path d="M288.703 47.8385H296L277.539 23.2231L260.835 0.365971H253.539L288.703 47.8385Z" fill="#E2231A"/>
<path d="M190.945 0.365967V47.8385H215.033V42.1242H197.363V0.365967H190.945Z" fill="#E2231A"/>
<path d="M158.417 47.8385V0.365978H182.505V6.08027H164.835V18.2781L182.417 18.2231V24.322L164.835 24.2121V47.8385H158.417Z" fill="#E2231A"/>
<path d="M38.8571 23.6627V47.8385H49.7582V0.365967H39.7363L29.0989 16.5418C27.6923 18.7396 26.5494 20.7616 25.6703 22.5198H25.4945C24.3516 20.5857 23.2088 18.9154 21.8022 16.8934L9.93407 0.365967H0V47.8385H10.989V23.311C10.989 21.9923 10.989 20.1462 10.9011 18.5638H11.0769C12.044 20.322 13.1868 21.7286 14.2418 23.1352L23.1209 35.2671H27.956L35.6923 23.5748C36.4835 22.344 38.4176 19.6187 38.8571 18.5638H38.945C38.8571 19.9701 38.8571 21.9036 38.8571 23.6615V23.6627Z" fill="#E2231A"/>
<path d="M96.8791 23.6627V47.8385H107.78V0.365967H97.7582L87.1209 16.5418C85.7143 18.7396 84.5714 20.7616 83.6923 22.5198H83.5165C82.3736 20.5857 81.2308 18.9154 79.8242 16.8934L67.956 0.365967H58.022V47.8385H69.011V23.311C69.011 21.9923 69.011 20.1462 68.9231 18.5638H69.0989C70.0659 20.322 71.2088 21.7286 72.2637 23.1352L81.1429 35.2671H85.978L93.7143 23.5748C94.5055 22.344 96.4396 19.6187 96.8791 18.5638H96.967C96.8791 19.9701 96.8791 21.9036 96.8791 23.6615V23.6627Z" fill="#E2231A"/>
<path d="M138.11 9.24509H150.681L152.967 0.365967H113.055V9.24509H126.945V47.8385H138.11V9.24509Z" fill="#E2231A"/>
<path d="M241.473 23.5342C238.417 38.3015 231.997 46.27 226.242 49.3383L219.486 44.3714C221.53 40.9586 224.115 35.1539 226.039 25.7554C229.643 8.6397 237.835 0.277583 244.738 -1.35839L249.748 2.35304C247.048 5.8621 243.71 12.6222 241.473 23.5342Z" fill="#E2231A"/>
</g>
<defs>
<clipPath id="clip0_62_35">
<rect width="296" height="48" fill="white"/>
</clipPath>
</defs>
</svg>
